<?xml version="1.0" encoding="UTF-8"?>
<svg xmlns="http://www.w3.org/2000/svg" xmlns:xlink="http://www.w3.org/1999/xlink" width="189pt" height="55.5pt" viewBox="0 0 189 55.5" version="1.2">
<defs>
<clipPath id="clip1">
  <path d="M 0.84375 3 L 188.15625 3 L 188.15625 54 L 0.84375 54 Z M 0.84375 3 "/>
</clipPath>
</defs>
<g id="surface1">
<g clip-path="url(#clip1)" clip-rule="nonzero">
<path style="fill:none;stroke-width:1.851957;stroke-linecap:butt;stroke-linejoin:miter;stroke:rgb(29.40979%,85.879517%,76.078796%);stroke-opacity:1;stroke-miterlimit:4;" d="M 18.586886 48.997452 L 18.586886 2.15736 L 28.493043 2.15736 L 28.493043 21.480935 L 48.594395 21.480935 L 48.594395 2.15736 L 58.484786 2.15736 L 58.484786 48.997452 L 48.594395 48.997452 L 48.594395 29.642346 L 28.493043 29.642346 L 28.493043 48.997452 Z M 74.70776 48.997452 L 64.092144 48.997452 L 80.273076 2.15736 L 93.027581 2.15736 L 109.176981 48.997452 L 98.561365 48.997452 L 95.087641 38.324029 L 78.181484 38.324029 Z M 80.698751 30.588292 L 92.601905 30.588292 L 86.831634 12.862316 L 86.469022 12.862316 Z M 114.810615 2.15736 L 127.029084 2.15736 L 139.920226 33.636341 L 140.472027 33.636341 L 153.368424 2.15736 L 165.586894 2.15736 L 165.586894 48.997452 L 155.975031 48.997452 L 155.975031 18.50646 L 155.586142 18.50646 L 143.462268 48.766221 L 136.919475 48.766221 L 124.811366 18.401355 L 124.417222 18.401355 L 124.417222 48.997452 L 114.810615 48.997452 Z M 173.816624 48.997452 L 173.816624 43.116822 L 197.186745 10.318772 L 173.769326 10.318772 L 173.769326 2.15736 L 209.636445 2.15736 L 209.636445 8.037991 L 186.240048 40.841296 L 209.683743 40.841296 L 209.683743 48.997452 Z M 225.339149 48.997452 L 214.723533 48.997452 L 230.904464 2.15736 L 243.658969 2.15736 L 259.80837 48.997452 L 249.192753 48.997452 L 245.71903 38.324029 L 228.812873 38.324029 Z M 231.33014 30.588292 L 243.233294 30.588292 L 237.463023 12.862316 L 237.100411 12.862316 Z M 231.33014 30.588292 " transform="matrix(0.743304,0,0,0.743304,-8.038355,9.576114)"/>
</g>
</g>
</svg>
