<svg width="709" height="141" viewBox="0 0 709 141" fill="none" xmlns="http://www.w3.org/2000/svg">
<path d="M120.767 3.05142V138H87.8952V82.4442H36.7608V138H3.88875V3.05142H36.7608V55.9159H87.8952V3.05142H120.767ZM228.504 114.163H178.139L170.065 138H135.655L184.482 3.05142H222.545L271.372 138H236.578L228.504 114.163ZM220.046 88.788L203.321 39.3837L186.789 88.788H220.046ZM439.059 3.05142V138H406.187V57.0693L376.007 138H349.478L319.105 56.8771V138H286.233V3.05142H325.064L362.935 96.4774L400.42 3.05142H439.059ZM497.685 111.087H555.74V138H460.391V113.01L518.062 29.9642H460.391V3.05142H555.74V28.0419L497.685 111.087ZM661.219 114.163H610.854L602.78 138H568.37L617.198 3.05142H655.26L704.088 138H669.293L661.219 114.163ZM652.761 88.788L636.037 39.3837L619.505 88.788H652.761Z" fill="white"/>
<path d="M120.767 3.05142H123.767V0.0514217H120.767V3.05142ZM120.767 138V141H123.767V138H120.767ZM87.8952 138H84.8952V141H87.8952V138ZM87.8952 82.4442H90.8952V79.4442H87.8952V82.4442ZM36.7608 82.4442V79.4442H33.7608V82.4442H36.7608ZM36.7608 138V141H39.7608V138H36.7608ZM3.88875 138H0.88875V141H3.88875V138ZM3.88875 3.05142V0.0514217H0.88875V3.05142H3.88875ZM36.7608 3.05142H39.7608V0.0514217H36.7608V3.05142ZM36.7608 55.9159H33.7608V58.9159H36.7608V55.9159ZM87.8952 55.9159V58.9159H90.8952V55.9159H87.8952ZM87.8952 3.05142V0.0514217H84.8952V3.05142H87.8952ZM117.767 3.05142V138H123.767V3.05142H117.767ZM120.767 135H87.8952V141H120.767V135ZM90.8952 138V82.4442H84.8952V138H90.8952ZM87.8952 79.4442H36.7608V85.4442H87.8952V79.4442ZM33.7608 82.4442V138H39.7608V82.4442H33.7608ZM36.7608 135H3.88875V141H36.7608V135ZM6.88875 138V3.05142H0.88875V138H6.88875ZM3.88875 6.05142H36.7608V0.0514217H3.88875V6.05142ZM33.7608 3.05142V55.9159H39.7608V3.05142H33.7608ZM36.7608 58.9159H87.8952V52.9159H36.7608V58.9159ZM90.8952 55.9159V3.05142H84.8952V55.9159H90.8952ZM87.8952 6.05142H120.767V0.0514217H87.8952V6.05142ZM228.504 114.163L231.346 113.201L230.655 111.163H228.504V114.163ZM178.139 114.163V111.163H175.987L175.297 113.201L178.139 114.163ZM170.065 138V141H172.216L172.906 138.962L170.065 138ZM135.655 138L132.834 136.979L131.379 141H135.655V138ZM184.482 3.05142V0.0514217H182.378L181.661 2.03071L184.482 3.05142ZM222.545 3.05142L225.366 2.03071L224.65 0.0514217H222.545V3.05142ZM271.372 138V141H275.648L274.193 136.979L271.372 138ZM236.578 138L233.737 138.962L234.427 141H236.578V138ZM220.046 88.788V91.788H224.229L222.887 87.826L220.046 88.788ZM203.321 39.3837L206.163 38.4218L203.305 29.9791L200.477 38.4317L203.321 39.3837ZM186.789 88.788L183.944 87.836L182.622 91.788H186.789V88.788ZM228.504 111.163H178.139V117.163H228.504V111.163ZM175.297 113.201L167.223 137.038L172.906 138.962L180.98 115.125L175.297 113.201ZM170.065 135H135.655V141H170.065V135ZM138.476 139.021L187.304 4.07213L181.661 2.03071L132.834 136.979L138.476 139.021ZM184.482 6.05142H222.545V0.0514217H184.482V6.05142ZM219.724 4.07213L268.551 139.021L274.193 136.979L225.366 2.03071L219.724 4.07213ZM271.372 135H236.578V141H271.372V135ZM239.419 137.038L231.346 113.201L225.663 115.125L233.737 138.962L239.419 137.038ZM222.887 87.826L206.163 38.4218L200.48 40.3457L217.204 89.7499L222.887 87.826ZM200.477 38.4317L183.944 87.836L189.634 89.74L206.166 40.3357L200.477 38.4317ZM186.789 91.788H220.046V85.788H186.789V91.788ZM439.059 3.05142H442.059V0.0514217H439.059V3.05142ZM439.059 138V141H442.059V138H439.059ZM406.187 138H403.187V141H406.187V138ZM406.187 57.0693H409.187L403.376 56.021L406.187 57.0693ZM376.007 138V141H378.09L378.817 139.048L376.007 138ZM349.478 138L346.669 139.052L347.398 141H349.478V138ZM319.105 56.8771L321.915 55.8252L316.105 56.8771H319.105ZM319.105 138V141H322.105V138H319.105ZM286.233 138H283.233V141H286.233V138ZM286.233 3.05142V0.0514217H283.233V3.05142H286.233ZM325.064 3.05142L327.845 1.92444L327.085 0.0514217H325.064V3.05142ZM362.935 96.4774L360.154 97.6043L362.949 104.498L365.719 97.5945L362.935 96.4774ZM400.42 3.05142V0.0514217H398.392L397.636 1.93429L400.42 3.05142ZM436.059 3.05142V138H442.059V3.05142H436.059ZM439.059 135H406.187V141H439.059V135ZM409.187 138V57.0693H403.187V138H409.187ZM403.376 56.021L373.196 136.952L378.817 139.048L408.998 58.1175L403.376 56.021ZM376.007 135H349.478V141H376.007V135ZM352.288 136.948L321.915 55.8252L316.296 57.929L346.669 139.052L352.288 136.948ZM316.105 56.8771V138H322.105V56.8771H316.105ZM319.105 135H286.233V141H319.105V135ZM289.233 138V3.05142H283.233V138H289.233ZM286.233 6.05142H325.064V0.0514217H286.233V6.05142ZM322.284 4.1784L360.154 97.6043L365.715 95.3504L327.845 1.92444L322.284 4.1784ZM365.719 97.5945L403.205 4.16856L397.636 1.93429L360.15 95.3602L365.719 97.5945ZM400.42 6.05142H439.059V0.0514217H400.42V6.05142ZM497.685 111.087L495.226 109.368L491.927 114.087H497.685V111.087ZM555.74 111.087H558.74V108.087H555.74V111.087ZM555.74 138V141H558.74V138H555.74ZM460.391 138H457.391V141H460.391V138ZM460.391 113.01L457.927 111.298L457.391 112.07V113.01H460.391ZM518.062 29.9642L520.526 31.6754L523.798 26.9642H518.062V29.9642ZM460.391 29.9642H457.391V32.9642H460.391V29.9642ZM460.391 3.05142V0.0514217H457.391V3.05142H460.391ZM555.74 3.05142H558.74V0.0514217H555.74V3.05142ZM555.74 28.0419L558.199 29.7608L558.74 28.9865V28.0419H555.74ZM497.685 114.087H555.74V108.087H497.685V114.087ZM552.74 111.087V138H558.74V111.087H552.74ZM555.74 135H460.391V141H555.74V135ZM463.391 138V113.01H457.391V138H463.391ZM462.856 114.721L520.526 31.6754L515.598 28.2531L457.927 111.298L462.856 114.721ZM518.062 26.9642H460.391V32.9642H518.062V26.9642ZM463.391 29.9642V3.05142H457.391V29.9642H463.391ZM460.391 6.05142H555.74V0.0514217H460.391V6.05142ZM552.74 3.05142V28.0419H558.74V3.05142H552.74ZM553.281 26.323L495.226 109.368L500.144 112.806L558.199 29.7608L553.281 26.323ZM661.219 114.163L664.061 113.201L663.371 111.163H661.219V114.163ZM610.854 114.163V111.163H608.703L608.013 113.201L610.854 114.163ZM602.78 138V141H604.931L605.622 138.962L602.78 138ZM568.37 138L565.549 136.979L564.094 141H568.37V138ZM617.198 3.05142V0.0514217H615.093L614.377 2.03071L617.198 3.05142ZM655.26 3.05142L658.081 2.03071L657.365 0.0514217H655.26V3.05142ZM704.088 138V141H708.364L706.909 136.979L704.088 138ZM669.293 138L666.452 138.962L667.142 141H669.293V138ZM652.761 88.788V91.788H656.944L655.603 87.826L652.761 88.788ZM636.037 39.3837L638.878 38.4218L636.02 29.9791L633.192 38.4317L636.037 39.3837ZM619.505 88.788L616.66 87.836L615.337 91.788H619.505V88.788ZM661.219 111.163H610.854V117.163H661.219V111.163ZM608.013 113.201L599.939 137.038L605.622 138.962L613.695 115.125L608.013 113.201ZM602.78 135H568.37V141H602.78V135ZM571.191 139.021L620.019 4.07213L614.377 2.03071L565.549 136.979L571.191 139.021ZM617.198 6.05142H655.26V0.0514217H617.198V6.05142ZM652.439 4.07213L701.267 139.021L706.909 136.979L658.081 2.03071L652.439 4.07213ZM704.088 135H669.293V141H704.088V135ZM672.135 137.038L664.061 113.201L658.378 115.125L666.452 138.962L672.135 137.038ZM655.603 87.826L638.878 38.4218L633.195 40.3457L649.92 89.7499L655.603 87.826ZM633.192 38.4317L616.66 87.836L622.349 89.74L638.882 40.3357L633.192 38.4317ZM619.505 91.788H652.761V85.788H619.505V91.788Z" fill="white"/>
</svg>
